<svg width="286" height="306" viewBox="0 0 286 306" fill="none" xmlns="http://www.w3.org/2000/svg">
<path d="M111.684 194.999C219.482 98.2826 147.319 347.275 258.585 265.378" stroke="#F6F6F6" stroke-opacity="0.55" stroke-width="15"/>
<path fill-rule="evenodd" clip-rule="evenodd" d="M193.518 232.934C217.98 218.04 236.572 194.461 245.012 166.48C249.124 169.346 253.772 171.495 258.777 172.747C248.56 204.83 226.456 231.609 197.64 247.909C196.139 243.202 194.804 238.165 193.518 232.934ZM179.842 240.073C165.359 246.456 149.344 250 132.5 250C67.6065 250 15 197.393 15 132.5C15 67.6065 67.6065 15 132.5 15C185.276 15 229.926 49.7952 244.76 97.6967C248.852 94.7997 253.486 92.6166 258.479 91.3286C241.162 38.3074 191.305 0 132.5 0C59.3223 0 0 59.3223 0 132.5C0 205.678 59.3223 265 132.5 265C150.784 265 168.203 261.297 184.047 254.599C182.486 249.947 181.111 245.034 179.842 240.073Z" fill="#D96704"/>
</svg>
